<svg xmlns="http://www.w3.org/2000/svg" viewBox="0 0 65.2 56.33"><defs><style>.cls-1{fill:#161718;}</style></defs><g id="Layer_2" data-name="Layer 2"><g id="Layer_1-2" data-name="Layer 1"><path class="cls-1" d="M53.69,16.59a17.24,17.24,0,0,0-33.41-5.28H20A14.73,14.73,0,0,0,5.26,26c0,.22,0,.44,0,.66A9.19,9.19,0,0,0,8.59,44.17H23.34a1.5,1.5,0,0,0,0-3H8.79A6.19,6.19,0,0,1,7.32,29.1a1.5,1.5,0,0,0,1-1.62A11.73,11.73,0,0,1,20,14.3a10.1,10.1,0,0,1,1.22.07,1.5,1.5,0,0,0,1.59-1.08A14.24,14.24,0,0,1,50.7,17.23c0,.19,0,.37,0,.55A1.5,1.5,0,0,0,52,19.34,11.72,11.72,0,0,1,62.2,31v.28a10.31,10.31,0,0,1-10.31,9.94h-10a1.5,1.5,0,0,0,0,3h10A13.32,13.32,0,0,0,65.19,31.31V31A14.75,14.75,0,0,0,53.69,16.59Z"/><path class="cls-1" d="M42.94,35.52a1.5,1.5,0,0,0,0-2.12l-9.27-9.06a1.5,1.5,0,0,0-2.1,0L22.28,33.4a1.48,1.48,0,0,0-.45,1.07,1.49,1.49,0,0,0,2.54,1.07L31.1,29V54.83a1.5,1.5,0,0,0,3,0V29l6.72,6.57A1.5,1.5,0,0,0,42.94,35.52Z"/></g></g></svg>