<svg xmlns="http://www.w3.org/2000/svg" viewBox="0 0 59.81 52.74"><defs><style>.cls-1{fill:#161718;}</style></defs><g id="Layer_2" data-name="Layer 2"><g id="Layer_1-2" data-name="Layer 1"><path class="cls-1" d="M40.25,31.93a1.5,1.5,0,0,0,0-2.12L31,20.74a1.51,1.51,0,0,0-2.09,0l-9.28,9.07a1.5,1.5,0,0,0,0,2.12,1.5,1.5,0,0,0,2.12,0l6.72-6.57V51.24a1.5,1.5,0,0,0,3,0V25.38L38.13,32A1.5,1.5,0,0,0,40.25,31.93Z"/><path class="cls-1" d="M56.11,16.66a15.45,15.45,0,0,0-9.78-5.36h0A20.24,20.24,0,0,0,8,18.53,12.66,12.66,0,0,0,0,30.36c0,.31,0,.63,0,.94A12.46,12.46,0,0,0,12.58,42.59h7.34v-3H12.58A9.43,9.43,0,0,1,3,31.08q0-.36,0-.72a9.68,9.68,0,0,1,6.84-9.3,1.58,1.58,0,0,0,1.09-1.42A17.25,17.25,0,0,1,44,13.35a1.58,1.58,0,0,0,1.26.85A12.6,12.6,0,0,1,56.77,27.83,13.16,13.16,0,0,1,43.53,39.59H39.89a1.5,1.5,0,0,0,0,3h3.64A16.18,16.18,0,0,0,59.76,28.07,15.55,15.55,0,0,0,56.11,16.66Z"/></g></g></svg>