<svg xmlns="http://www.w3.org/2000/svg" viewBox="0 0 43.59 38.7"><g id="Layer_2" data-name="Layer 2"><g id="Layer_1-2" data-name="Layer 1"><path d="M43.1,33.34,24.89,1.79a3.57,3.57,0,0,0-6.19,0L.48,33.34a3.58,3.58,0,0,0,3.1,5.36H40a3.58,3.58,0,0,0,3.09-5.36Zm-2.59,2.07a.57.57,0,0,1-.5.29H3.58a.55.55,0,0,1-.5-.29.56.56,0,0,1,0-.57L21.3,3.29a.57.57,0,0,1,1,0h0L40.51,34.84A.56.56,0,0,1,40.51,35.41Z"/><path d="M21.79,27.38a1.9,1.9,0,0,0-1.37.56,1.81,1.81,0,0,0-.57,1.34A1.66,1.66,0,0,0,20,30a1.73,1.73,0,0,0,.42.58,2.32,2.32,0,0,0,.62.39,2,2,0,0,0,2.12-.41,1.82,1.82,0,0,0,.57-1.34,1.72,1.72,0,0,0-.58-1.31A2,2,0,0,0,21.79,27.38Z"/><path d="M23.16,13.77H20.43a.84.84,0,0,0-.84.89l.69,10.14a.84.84,0,0,0,.84.78h1.35a.84.84,0,0,0,.84-.78L24,14.66A.84.84,0,0,0,23.16,13.77Z"/></g></g></svg>