<svg xmlns="http://www.w3.org/2000/svg" viewBox="0 0 40.68 40.68"><g id="Layer_2" data-name="Layer 2"><g id="Layer_1-2" data-name="Layer 1"><path d="M23.13.2A20.35,20.35,0,0,0,.19,17.55,20.37,20.37,0,0,0,17.55,40.49a20.81,20.81,0,0,0,2.83.19A20.34,20.34,0,0,0,23.13.2ZM37.51,22.72A17.33,17.33,0,1,1,20.33,3a17.54,17.54,0,0,1,2.38.17A17.36,17.36,0,0,1,37.51,22.72Z"/><path d="M20.31,9.56a2.22,2.22,0,0,0-1.64.65A2.05,2.05,0,0,0,18,11.73a2.07,2.07,0,0,0,.65,1.53,2.21,2.21,0,0,0,1.64.64A2.39,2.39,0,0,0,22,13.29a2,2,0,0,0,.68-1.56A2,2,0,0,0,22,10.18,2.4,2.4,0,0,0,20.31,9.56Z"/><rect x="18.53" y="16.65" width="3.62" height="14.47"/></g></g></svg>