<svg xmlns="http://www.w3.org/2000/svg" id="Ebene_1" x="0" y="0" version="1.1" viewBox="0 0 600 188" xml:space="preserve">
  <title lang="en">Akarion Logo</title>
  <path d="M319.5 71.4c13.7-2 27.3-12.7 27.6-33 .4-21-14.1-36-36.7-36.3L267 1.3c-3.7-.1-6.7 2.8-6.7 6.5l-.7 41.3 18.7 50.2c.1.2.4.2.4-.1l.5-26.3 19.8.3 24.6 43 23.1.4-27.2-45.2zm-40.1-16l.6-36.2 27.4.5c11.3.2 19.4 7.5 19.2 18.4-.2 10.9-8.5 18-19.8 17.8l-27.4-.5zM351.4 115.9V8.6c0-3.7 3-6.6 6.6-6.6h13.4v113.9h-20zM377.9 58.9c0-34 24.1-58.9 58.3-58.9 34.2 0 58.3 24.9 58.3 58.9s-24.1 58.9-58.3 58.9c-34.2.1-58.3-24.9-58.3-58.9zm96.2 0c0-23.6-14.9-41.2-37.8-41.2-23.1 0-37.8 17.6-37.8 41.2 0 23.4 14.7 41.2 37.8 41.2 22.9 0 37.8-17.8 37.8-41.2zM580.7 115.9l-59.5-81.3v81.3h-20V8.6c0-3.7 3-6.6 6.6-6.6h13.9L580 81.1V2h20v113.9h-19.3zM234.5 2H214c-2.7 0-5.2 1.7-6.2 4.2L172 97.3l-34.4-41.5L184.1 2h-24.8l-44.7 54.3V2h-13.4c-3.7 0-6.6 3-6.6 6.6v40.8l19.6 49.9c.1.2.4.2.4-.1V79.5l9.9-11.6 38.3 48h24.7l8.4-21.9L222 22.1l28 70.5 9.3 23.3h20L234.5 2z"/>
  <path fill="#db0032" d="M72.6 9.1L69.8 2H49.6C47 2 43.8 5 42 9.1L0 115.9h22.8L54.5 30l2.9-7.8 2.9 7.8L92 115.9h22.8L72.6 9.1z"/>
  <path d="M196.1 160.3c0-1 .2-1.2 1.2-1.2h1.6c.9 0 1.1.2 1.1 1.2v26.2c0 .9-.2 1.2-1.1 1.2h-1.6c-.9 0-1.2-.2-1.2-1.2v-26.2zM229.7 182.2v-22c0-1 .2-1.2 1.2-1.2h1.6c.9 0 1.2.2 1.2 1.2v26.2c0 .9-.2 1.2-1.2 1.2h-2.2c-1 0-1.3-.2-1.8-1.1l-11.9-17.3c-1.4-2-2.6-3.9-3.6-5.8h-.2v22.9c0 .9-.2 1.2-1.1 1.2h-1.6c-.9 0-1.2-.2-1.2-1.2v-26.2c0-1 .2-1.2 1.2-1.2h2.8c.9 0 1.3.2 1.8 1l12.3 17.5c1.1 1.5 1.9 3.1 2.7 4.6zM263.4 182.2v-22c0-1 .2-1.2 1.2-1.2h1.6c.9 0 1.2.2 1.2 1.2v26.2c0 .9-.2 1.2-1.2 1.2H264c-1 0-1.3-.2-1.8-1.1l-11.9-17.3c-1.4-2-2.6-3.9-3.6-5.8h-.2v22.9c0 .9-.2 1.2-1.1 1.2h-1.6c-.9 0-1.2-.2-1.2-1.2v-26.2c0-1 .2-1.2 1.2-1.2h2.8c.9 0 1.3.2 1.8 1l12.3 17.5c1.1 1.5 1.9 3.1 2.7 4.6zM288.7 188c-8.9 0-14.2-5.8-14.2-14.7 0-8.9 5.3-14.6 14.2-14.6 8.9 0 14.2 5.7 14.2 14.6 0 8.9-5.4 14.7-14.2 14.7zm0-3.4c6.7 0 10.1-4.6 10.1-11.3 0-6.5-3.5-11.2-10.1-11.2-6.7 0-10.1 4.7-10.1 11.2 0 6.8 3.4 11.3 10.1 11.3zM326.7 160.2c.3-.9.7-1.1 1.6-1.1h1.8c1 0 1.1.2.8 1.1l-10 26.3c-.3.9-.7 1.1-1.6 1.1h-1.8c-.9 0-1.3-.2-1.6-1.1l-9.8-26.3c-.3-.9-.1-1.1.8-1.1h1.8c.9 0 1.3.2 1.6 1.1l8.1 22.8 8.3-22.8zM351.5 180.7h-13.7l-2.3 5.8c-.2.9-.6 1.1-1.5 1.1h-1.7c-.7 0-1-.4-.8-1.1l10.7-26.4c.3-.9.6-1.1 1.5-1.1h1.7c.9 0 1.2.2 1.6 1.1l10.9 26.4c.2.7 0 1.1-.8 1.1h-1.7c-.9 0-1.2-.2-1.5-1.1l-2.4-5.8zm-12.3-3.4h10.9l-5.5-13.5-5.4 13.5zM366.6 162.5h-7.8c-.9 0-1.2-.2-1.2-1.2v-1.1c0-1 .2-1.2 1.2-1.2h19.3c.9 0 1.1.2 1.1 1.2v1.1c0 1-.2 1.2-1.1 1.2h-7.6v23.9c0 .9-.2 1.2-1.1 1.2h-1.6c-1 0-1.2-.2-1.2-1.2v-23.9zM385.1 160.3c0-1 .2-1.2 1.2-1.2h1.6c.9 0 1.1.2 1.1 1.2v26.2c0 .9-.2 1.2-1.1 1.2h-1.6c-.9 0-1.2-.2-1.2-1.2v-26.2zM418.7 182.2v-22c0-1 .2-1.2 1.2-1.2h1.6c.9 0 1.2.2 1.2 1.2v26.2c0 .9-.2 1.2-1.2 1.2h-2.2c-1 0-1.3-.2-1.8-1.1l-11.9-17.3c-1.4-2-2.6-3.9-3.6-5.8h-.2v22.9c0 .9-.2 1.2-1.1 1.2h-1.6c-.9 0-1.2-.2-1.2-1.2v-26.2c0-1 .2-1.2 1.2-1.2h2.8c.9 0 1.3.2 1.8 1l12.3 17.5c1.1 1.5 1.9 3.1 2.7 4.6zM453.9 161.7c.3.3.8.8.1 1.5l-1.2 1c-.7.7-1.2.3-1.6 0-1.5-1.1-3.8-2-7-2-5.6 0-10.3 3.5-10.3 11.1 0 6.9 4.1 11.1 11 11.1 2.2 0 4.3-.3 6.1-.9V177h-5.5c-.9 0-1.1-.2-1.1-1.2v-1.1c0-.9.2-1.2 1.1-1.2h8.1c.9 0 1.1.2 1.1 1.2v9.9c0 1-.3 1.5-1.1 1.8-2.2.9-5.4 1.6-9.1 1.6-9.4 0-14.8-5.8-14.8-14.6 0-9.5 6.1-14.7 14.3-14.7 5 0 7.7 1.3 9.9 3zM480.7 162.5h-7.8c-.9 0-1.2-.2-1.2-1.2v-1.1c0-1 .2-1.2 1.2-1.2h19.3c.9 0 1.1.2 1.1 1.2v1.1c0 1-.2 1.2-1.1 1.2h-7.6v23.9c0 .9-.2 1.2-1.1 1.2h-1.6c-1 0-1.2-.2-1.2-1.2v-23.9zM499.2 160.3c0-1 .2-1.2 1.2-1.2h7.1c7.5 0 11.4 2.6 11.4 8.3 0 4.2-2.2 6.8-6.4 7.8l7.7 11.4c.4.6.1 1-.5 1h-2c-1 0-1.3-.2-1.8-1l-7.2-10.9H503v10.8c0 .9-.2 1.2-1.1 1.2h-1.6c-.9 0-1.2-.2-1.2-1.2v-26.2zm3.8 2.2v9.7h4.4c5.1 0 7.4-1.4 7.4-4.8 0-3.3-2.2-4.9-7.4-4.9H503zM544.2 160.3c0-1 .3-1.2 1.2-1.2h1.5c1 0 1.2.2 1.2 1.2v17.1c0 6.9-4.1 10.6-11.1 10.6-7.1 0-11.1-3.7-11.1-10.6v-17.1c0-1 .2-1.2 1.1-1.2h1.6c.9 0 1.1.2 1.1 1.2v16.9c0 4.3 2.1 7.3 7.2 7.3s7.2-3 7.2-7.3v-16.9zM559.1 166.1c0 6.5 15.1 4.3 15.1 14 0 4.7-3.7 8-9.7 8-4.9 0-7.9-1.4-9.7-3.1-.6-.5-.7-1.1 0-1.7l1-.8c.8-.6 1.2-.4 1.8 0 1.6 1.3 3.6 2.2 6.9 2.2 3.5 0 5.9-1.8 5.9-4.6 0-7-15.1-4.3-15.1-14 0-4.7 3.6-7.5 9.4-7.5 3.4 0 5.8.9 7.8 2.6.3.2.9.8 0 1.6l-1.1.8c-.8.7-1.2.3-1.6.1-1.4-1-2.9-1.7-5.1-1.7-3.5 0-5.6 1.5-5.6 4.1zM587.4 162.5h-7.8c-.9 0-1.2-.2-1.2-1.2v-1.1c0-1 .2-1.2 1.2-1.2h19.3c.9 0 1.1.2 1.1 1.2v1.1c0 1-.2 1.2-1.1 1.2h-7.6v23.9c0 .9-.2 1.2-1.1 1.2h-1.6c-1 0-1.2-.2-1.2-1.2v-23.9z"/>
</svg>