<svg xmlns="http://www.w3.org/2000/svg" viewBox="0 0 40.67 40.67"><defs><style>.cls-1{fill:#161718;}</style></defs><g id="Layer_2" data-name="Layer 2"><g id="Layer_1-2" data-name="Layer 1"><path class="cls-1" d="M39.17,18.84a1.5,1.5,0,0,0-1.5,1.5A17.35,17.35,0,1,1,33.25,8.78l-5.75-.2A1.51,1.51,0,0,0,26,10a1.49,1.49,0,0,0,1.45,1.55l8.83.31h.1a1.34,1.34,0,0,0,.35,0h0l.06,0a1.37,1.37,0,0,0,.37-.17l0,0a2.43,2.43,0,0,0,.29-.26l.05-.07a1.22,1.22,0,0,0,.2-.35l0-.08a1.42,1.42,0,0,0,.08-.42h0l.31-8.88A1.5,1.5,0,0,0,36.69,0a1.52,1.52,0,0,0-1.55,1.45L35,6.21a20.35,20.35,0,1,0,5.69,14.13A1.5,1.5,0,0,0,39.17,18.84Z"/></g></g></svg>